# xmcd
#
# Track frame offsets:
#	182
#	12130
#	23935
#	37522
#	50067
#	62422
#	76925
#	89865
#	105190
#	117302
#	131940
#	144692
#	157365
#	170655
#	182642
#	195807
#	208422
#
# Disc length: 2916 seconds
#
# Revision: 9
# Processed by: cddbd v1.5.2PL0 Copyright (c) Steve Scherf et al.
# Submitted via: audiograbber 1.83.01
#
DISCID=eb0b6211
DTITLE=Ray Charles - The Birth Of Soul  [CD1)
DYEAR=1991
DGENRE=Oldies
TTITLE0=The Sun's Gonna Shine Again
TTITLE1=Roll With My Baby
TTITLE2=The Midnight Hour
TTITLE3=Jumpin' In The Morning
TTITLE4=It Should Have Been Me
TTITLE5=Losing Hand
TTITLE6=Heartbreaker
TTITLE7=Sinner's Prayer
TTITLE8=Mess Around
TTITLE9=Funny, But I Still Love You
TTITLE10=Feelin' Sad
TTITLE11=I Wonder Who
TTITLE12=Don't You Know
TTITLE13=Nobody Cares
TTITLE14=Ray's Blues
TTITLE15=Mr. Charles Blues
TTITLE16=Blackjack
EXTD=
EXTT0=
EXTT1=
EXTT2=
EXTT3=
EXTT4=
EXTT5=
EXTT6=
EXTT7=
EXTT8=
EXTT9=
EXTT10=
EXTT11=
EXTT12=
EXTT13=
EXTT14=
EXTT15=
EXTT16=
PLAYORDER=
